<svg width="24" height="24" viewBox="0 0 24 24" fill="none" xmlns="http://www.w3.org/2000/svg">
    <g id="searchIcon">
        <path d="M18.031 16.6168L22.3137 20.8995L20.8995 22.3137L16.6168 18.031C15.0769 19.263 13.124 20 11 20C6.032 20 2 15.968 2 11C2 6.032 6.032 2 11 2C15.968 2 20 6.032 20 11C20 13.124 19.263 15.0769 18.031 16.6168ZM16.0247 15.8748C17.2475 14.6146 18 12.8956 18 11C18 7.1325 14.8675 4 11 4C7.1325 4 4 7.1325 4 11C4 14.8675 7.1325 18 11 18C12.8956 18 14.6146 17.2475 15.8748 16.0247L16.0247 15.8748Z"
              fill="white" fill-opacity="0.5"/>
    </g>
    <g id="ratingIcon">
        <path d="M5.00041 7.60831L2.06148 9.2534L2.71786 5.94994L0.245117 3.66323L3.58972 3.26667L5.00041 0.208313L6.41108 3.26667L9.75566 3.66323L7.28295 5.94994L7.93933 9.2534L5.00041 7.60831Z"
              fill="white"/>
    </g>
</svg>
